<?xml version="1.0" encoding="UTF-8" standalone="no"?>
<svg
   xmlns:dc="http://purl.org/dc/elements/1.1/"
   xmlns:cc="http://creativecommons.org/ns#"
   xmlns:rdf="http://www.w3.org/1999/02/22-rdf-syntax-ns#"
   xmlns:svg="http://www.w3.org/2000/svg"
   xmlns="http://www.w3.org/2000/svg"
   xmlns:sodipodi="http://sodipodi.sourceforge.net/DTD/sodipodi-0.dtd"
   xmlns:inkscape="http://www.inkscape.org/namespaces/inkscape"
   inkscape:version="1.0rc1 (09960d6, 2020-04-09)"
   height="422.42523"
   width="420.06299"
   sodipodi:docname="situationist-logo.svg"
   id="svg860"
   stroke-miterlimit="10"
   stroke-linecap="square"
   stroke="none"
   fill="none"
   viewBox="0 0 420.06299 422.42523"
   version="1.1">
  <metadata
     id="metadata866">
    <rdf:RDF>
      <cc:Work
         rdf:about="">
        <dc:format>image/svg+xml</dc:format>
        <dc:type
           rdf:resource="http://purl.org/dc/dcmitype/StillImage" />
        <dc:title></dc:title>
      </cc:Work>
    </rdf:RDF>
  </metadata>
  <defs
     id="defs864" />
  <sodipodi:namedview
     inkscape:current-layer="g858"
     inkscape:window-maximized="0"
     inkscape:window-y="23"
     inkscape:window-x="0"
     inkscape:cy="189.33989"
     inkscape:cx="484.35896"
     inkscape:zoom="0.74166667"
     fit-margin-bottom="0"
     fit-margin-right="0"
     fit-margin-left="0"
     fit-margin-top="0"
     showgrid="false"
     id="namedview862"
     inkscape:window-height="799"
     inkscape:window-width="1279"
     inkscape:pageshadow="2"
     inkscape:pageopacity="0"
     guidetolerance="10"
     gridtolerance="10"
     objecttolerance="10"
     borderopacity="1"
     bordercolor="#666666"
     pagecolor="#ffffff" />
  <clipPath
     id="p.0">
    <path
       inkscape:connector-curvature="0"
       id="path833"
       clip-rule="nonzero"
       d="M 0,0 H 960 V 720 H 0 Z" />
  </clipPath>
  <g
     transform="translate(-255.1916,-170.66011)"
     id="g858"
     clip-path="url(#p.0)">
    <path
       inkscape:connector-curvature="0"
       id="path836"
       fill-rule="evenodd"
       d="M 0,0 H 960 V 720 H 0 Z"
       fill-opacity="0"
       fill="#000000" />
    <path
       inkscape:connector-curvature="0"
       id="path838"
       fill-rule="evenodd"
       d="m 267.1916,182.66011 h 396.063 v 398.42523 h -396.063 z"
       fill="#ffffff" />
    <path
       inkscape:connector-curvature="0"
       id="path840"
       fill-rule="evenodd"
       d="m 267.1916,182.66011 h 396.063 v 398.42523 h -396.063 z"
       stroke-linecap="butt"
       stroke-linejoin="round"
       stroke-width="24"
       stroke="#000000" />
    <path
       inkscape:connector-curvature="0"
       id="path842"
       fill-rule="evenodd"
       d="m 254.18373,211.32152 h 422.07874 v 297.3543 H 254.18373 Z"
       fill-opacity="0"
       fill="#000000" />
    <path
       inkscape:connector-curvature="0"
       id="path844"
       fill-rule="nonzero"
       d="m 484.53616,397.02838 q 0,11.42188 -4.25,20.04688 -4.25,8.625 -11.53125,14.39062 -7.28125,5.76563 -17.03125,8.6875 -9.73438,2.90625 -20.82813,2.90625 -7.5,0 -13.9375,-1.23437 -6.4375,-1.23438 -11.375,-2.96875 -4.92187,-1.73438 -8.21875,-3.64063 -3.29687,-1.90625 -4.76562,-3.35937 -1.45313,-1.45313 -2.07813,-4.1875 -0.60937,-2.75 -0.60937,-7.90625 0,-3.46875 0.21875,-5.8125 0.23437,-2.35938 0.73437,-3.8125 0.51563,-1.45313 1.34375,-2.0625 0.84375,-0.625 1.96875,-0.625 1.5625,0 4.42188,1.84375 2.85937,1.84375 7.32812,4.09375 4.48438,2.23437 10.6875,4.09375 6.21875,1.84375 14.40625,1.84375 5.375,0 9.625,-1.28125 4.25,-1.29688 7.21875,-3.64063 2.96875,-2.35937 4.53125,-5.82812 1.57813,-3.48438 1.57813,-7.73438 0,-4.92187 -2.6875,-8.45312 -2.6875,-3.53125 -7,-6.26563 -4.3125,-2.75 -9.79688,-5.15625 -5.48437,-2.40625 -11.3125,-5.09375 -5.82812,-2.6875 -11.3125,-6.09375 -5.48437,-3.42187 -9.79687,-8.17187 -4.3125,-4.76563 -7,-11.26563 -2.6875,-6.5 -2.6875,-15.5625 0,-10.42187 3.85937,-18.3125 3.875,-7.89062 10.42188,-13.09375 6.54687,-5.21875 15.45312,-7.78125 8.90625,-2.57812 18.85938,-2.57812 5.15625,0 10.29687,0.78125 5.15625,0.78125 9.64063,2.125 4.48437,1.34375 7.95312,3.03125 3.46875,1.67187 4.57813,2.79687 1.125,1.10938 1.51562,1.90625 0.40625,0.78125 0.67188,2.07813 0.28125,1.28125 0.39062,3.23437 0.125,1.95313 0.125,4.875 0,3.25 -0.17187,5.48438 -0.17188,2.23437 -0.5625,3.70312 -0.39063,1.45313 -1.125,2.125 -0.71875,0.65625 -1.95313,0.65625 -1.23437,0 -3.92187,-1.5625 -2.6875,-1.5625 -6.60938,-3.40625 -3.90625,-1.85937 -9.0625,-3.35937 -5.15625,-1.51563 -11.3125,-1.51563 -4.8125,0 -8.40625,1.17188 -3.57812,1.17187 -5.98437,3.25 -2.40625,2.07812 -3.57813,4.98437 -1.17187,2.90625 -1.17187,6.15625 0,4.8125 2.625,8.34375 2.625,3.53125 7.04687,6.28125 4.4375,2.73438 10.03125,5.14063 5.59375,2.40625 11.42188,5.09375 5.82812,2.6875 11.42187,6.10937 5.59375,3.40625 9.95313,8.17188 4.375,4.75 7.0625,11.1875 2.6875,6.4375 2.6875,15.17187 z m 49.04959,39.64063 q 0,1.125 -0.67188,1.96875 -0.67187,0.84375 -2.29687,1.40625 -1.625,0.54687 -4.3125,0.82812 -2.6875,0.28125 -6.82813,0.28125 -4.14062,0 -6.82812,-0.28125 -2.68747,-0.28125 -4.31247,-0.82812 -1.625,-0.5625 -2.29687,-1.40625 -0.67188,-0.84375 -0.67188,-1.96875 v -99.65625 q 0,-1.125 0.67188,-1.95313 0.67187,-0.84375 2.29687,-1.45312 1.625,-0.625 4.31247,-0.95313 2.6875,-0.34375 6.82812,-0.34375 4.14063,0 6.82813,0.34375 2.6875,0.32813 4.3125,0.95313 1.625,0.60937 2.29687,1.45312 0.67188,0.82813 0.67188,1.95313 z m 2.125,-133.6875 q 0,8.5 -3.46875,11.75 -3.46875,3.25 -12.875,3.25 -9.51559,0 -12.82809,-3.125 -3.29688,-3.14063 -3.29688,-11.32813 0,-8.5 3.40625,-11.79687 3.42188,-3.3125 12.93747,-3.3125 9.40625,0 12.76562,3.1875 3.35938,3.1875 3.35938,11.375 z"
       fill="#000000" />
    <path
       inkscape:connector-curvature="0"
       id="path846"
       fill-rule="evenodd"
       d="m 257.74277,438.24408 h 414.96066 v 84.03149 H 257.74277 Z"
       fill-opacity="0"
       fill="#000000" />
    <path
       inkscape:connector-curvature="0"
       id="path848"
       fill-rule="nonzero"
       d="m 355.55643,488.33472 q 0,2.65625 -0.98438,4.67187 -0.98437,2 -2.6875,3.34375 -1.6875,1.34375 -3.95312,2.01563 -2.26563,0.67187 -4.84375,0.67187 -1.75,0 -3.25,-0.28125 -1.48438,-0.28125 -2.64063,-0.6875 -1.14062,-0.40625 -1.90625,-0.84375 -0.76562,-0.45312 -1.10937,-0.78125 -0.34375,-0.34375 -0.48438,-0.98437 -0.14062,-0.64063 -0.14062,-1.82813 0,-0.8125 0.0469,-1.35937 0.0625,-0.54688 0.17188,-0.875 0.125,-0.34375 0.3125,-0.48438 0.20312,-0.15625 0.45312,-0.15625 0.375,0 1.03125,0.4375 0.67188,0.42188 1.70313,0.95313 1.04687,0.51562 2.48437,0.95312 1.45313,0.42188 3.35938,0.42188 1.25,0 2.23437,-0.29688 0.98438,-0.29687 1.67188,-0.84375 0.70312,-0.54687 1.0625,-1.35937 0.35937,-0.8125 0.35937,-1.79688 0,-1.14062 -0.625,-1.95312 -0.625,-0.82813 -1.625,-1.46875 -1,-0.64063 -2.28125,-1.20313 -1.26562,-0.5625 -2.625,-1.1875 -1.35937,-0.625 -2.64062,-1.40625 -1.26563,-0.79687 -2.26563,-1.90625 -1,-1.10937 -1.625,-2.60937 -0.625,-1.51563 -0.625,-3.625 0,-2.42188 0.89063,-4.25 0.90625,-1.84375 2.42187,-3.04688 1.53125,-1.21875 3.59375,-1.8125 2.07813,-0.60937 4.39063,-0.60937 1.20312,0 2.39062,0.1875 1.20313,0.1875 2.23438,0.5 1.04687,0.3125 1.85937,0.70312 0.8125,0.39063 1.0625,0.65625 0.26563,0.25 0.35938,0.4375 0.0937,0.17188 0.15625,0.48438 0.0625,0.29687 0.0781,0.75 0.0312,0.45312 0.0312,1.125 0,0.76562 -0.0469,1.28125 -0.0312,0.51562 -0.125,0.85937 -0.0781,0.34375 -0.25,0.5 -0.17188,0.14063 -0.45313,0.14063 -0.29687,0 -0.92187,-0.35938 -0.625,-0.35937 -1.53125,-0.78125 -0.90625,-0.4375 -2.10938,-0.78125 -1.20312,-0.35937 -2.625,-0.35937 -1.125,0 -1.96875,0.28125 -0.82812,0.26562 -1.39062,0.75 -0.54688,0.48437 -0.82813,1.15625 -0.26562,0.67187 -0.26562,1.42187 0,1.125 0.60937,1.95313 0.60938,0.8125 1.64063,1.45312 1.03125,0.64063 2.32812,1.20313 1.29688,0.54687 2.65625,1.17187 1.35938,0.625 2.65625,1.42188 1.29688,0.79687 2.3125,1.90625 1.01563,1.10937 1.64063,2.60937 0.625,1.48438 0.625,3.51563 z m 11.409,9.21875 q 0,0.26562 -0.15625,0.46875 -0.15625,0.1875 -0.53125,0.32812 -0.375,0.125 -1,0.1875 -0.625,0.0625 -1.59375,0.0625 -0.96875,0 -1.59375,-0.0625 -0.625,-0.0625 -1,-0.1875 -0.375,-0.14062 -0.53125,-0.32812 -0.15625,-0.20313 -0.15625,-0.46875 v -23.17188 q 0,-0.26562 0.15625,-0.45312 0.15625,-0.20313 0.53125,-0.34375 0.375,-0.14063 1,-0.21875 0.625,-0.0781 1.59375,-0.0781 0.96875,0 1.59375,0.0781 0.625,0.0781 1,0.21875 0.375,0.14062 0.53125,0.34375 0.15625,0.1875 0.15625,0.45312 z m 0.5,-31.07813 q 0,1.96875 -0.8125,2.73438 -0.8125,0.75 -3,0.75 -2.20313,0 -2.98438,-0.71875 -0.76562,-0.73438 -0.76562,-2.64063 0,-1.98437 0.79687,-2.75 0.79688,-0.76562 3.01563,-0.76562 2.1875,0 2.96875,0.75 0.78125,0.73437 0.78125,2.64062 z m 19.78518,28.79688 q 0,1.14062 -0.14062,1.75 -0.14063,0.60937 -0.375,0.85937 -0.23438,0.25 -0.70313,0.45313 -0.45312,0.1875 -1.0625,0.32812 -0.60937,0.14063 -1.32812,0.21875 -0.71875,0.0781 -1.4375,0.0781 -1.95313,0 -3.39063,-0.5 -1.4375,-0.48438 -2.375,-1.51563 -0.9375,-1.03125 -1.375,-2.59375 -0.4375,-1.5625 -0.4375,-3.6875 v -11.90625 h -2.79687 q -0.48438,0 -0.75,-0.60937 -0.26563,-0.60938 -0.26563,-2.04688 0,-0.75 0.0625,-1.26562 0.0781,-0.53125 0.20313,-0.82813 0.125,-0.29687 0.3125,-0.42187 0.20312,-0.14063 0.46875,-0.14063 h 2.76562 v -5.17187 q 0,-0.26563 0.14063,-0.46875 0.14062,-0.21875 0.51562,-0.35938 0.375,-0.14062 1.01563,-0.20312 0.64062,-0.0625 1.57812,-0.0625 0.96875,0 1.59375,0.0625 0.64063,0.0625 1,0.20312 0.375,0.14063 0.53125,0.35938 0.15625,0.20312 0.15625,0.46875 v 5.17187 h 5.04688 q 0.26562,0 0.45312,0.14063 0.20313,0.125 0.32813,0.42187 0.14062,0.29688 0.20312,0.82813 0.0625,0.51562 0.0625,1.26562 0,1.4375 -0.26562,2.04688 -0.25,0.60937 -0.75,0.60937 h -5.07813 v 10.90625 q 0,1.90625 0.59375,2.85938 0.60938,0.95312 2.14063,0.95312 0.51562,0 0.9375,-0.0937 0.42187,-0.0937 0.73437,-0.20312 0.32813,-0.125 0.54688,-0.21875 0.23437,-0.0937 0.40625,-0.0937 0.15625,0 0.29687,0.0937 0.15625,0.0937 0.23438,0.375 0.0781,0.26562 0.14062,0.73437 0.0625,0.46875 0.0625,1.20313 z m 26.76905,2.28125 q 0,0.26562 -0.14063,0.46875 -0.125,0.1875 -0.45312,0.32812 -0.3125,0.125 -0.85938,0.1875 -0.53125,0.0625 -1.32812,0.0625 -0.85938,0 -1.40625,-0.0625 -0.53125,-0.0625 -0.84375,-0.1875 -0.3125,-0.14062 -0.4375,-0.32812 -0.125,-0.20313 -0.125,-0.46875 v -2.67188 q -1.9375,2.07813 -3.9375,3.125 -1.98438,1.03125 -4.10938,1.03125 -2.40625,0 -4.03125,-0.78125 -1.625,-0.78125 -2.625,-2.125 -1,-1.35937 -1.4375,-3.14062 -0.42187,-1.78125 -0.42187,-4.4375 v -14.21875 q 0,-0.26563 0.14062,-0.45313 0.14063,-0.20312 0.51563,-0.32812 0.375,-0.14063 1.01562,-0.20313 0.64063,-0.0625 1.57813,-0.0625 0.96875,0 1.59375,0.0625 0.625,0.0625 1,0.20313 0.375,0.125 0.53125,0.32812 0.15625,0.1875 0.15625,0.45313 v 13.125 q 0,1.8125 0.23437,2.78125 0.23438,0.96875 0.71875,1.65625 0.48438,0.6875 1.21875,1.0625 0.75,0.375 1.73438,0.375 1.25,0 2.51562,-0.90625 1.26563,-0.90625 2.6875,-2.65625 v -15.4375 q 0,-0.26563 0.14063,-0.45313 0.15625,-0.20312 0.53125,-0.32812 0.375,-0.14063 1,-0.20313 0.625,-0.0625 1.59375,-0.0625 0.95312,0 1.57812,0.0625 0.625,0.0625 0.98438,0.20313 0.375,0.125 0.53125,0.32812 0.15625,0.1875 0.15625,0.45313 z m 26.38263,0.0781 q 0,0.375 -0.26563,0.57813 -0.26562,0.20312 -0.82812,0.29687 -0.54688,0.0937 -1.64063,0.0937 -1.17187,0 -1.71875,-0.0937 -0.53125,-0.0937 -0.75,-0.29687 -0.21875,-0.20313 -0.21875,-0.57813 v -1.84375 q -1.4375,1.53125 -3.28125,2.39063 -1.82812,0.85937 -4.0625,0.85937 -1.84375,0 -3.40625,-0.48437 -1.54687,-0.46875 -2.6875,-1.42188 -1.125,-0.95312 -1.75,-2.35937 -0.625,-1.40625 -0.625,-3.28125 0,-2.03125 0.79688,-3.53125 0.79687,-1.5 2.375,-2.46875 1.57812,-0.98438 3.92187,-1.45313 2.34375,-0.46875 5.4375,-0.46875 h 2.26563 v -1.40625 q 0,-1.09375 -0.21875,-1.90625 -0.21875,-0.82812 -0.73438,-1.375 -0.5,-0.54687 -1.35937,-0.79687 -0.84375,-0.26563 -2.09375,-0.26563 -1.64063,0 -2.9375,0.375 -1.28125,0.35938 -2.26563,0.79688 -0.98437,0.4375 -1.65625,0.8125 -0.65625,0.35937 -1.07812,0.35937 -0.28125,0 -0.51563,-0.17187 -0.21875,-0.1875 -0.35937,-0.53125 -0.14063,-0.34375 -0.21875,-0.82813 -0.0781,-0.5 -0.0781,-1.09375 0,-0.8125 0.125,-1.28125 0.14063,-0.46875 0.5,-0.84375 0.35938,-0.375 1.26563,-0.82812 0.92187,-0.46875 2.14062,-0.85938 1.23438,-0.39062 2.67188,-0.625 1.45312,-0.25 2.98437,-0.25 2.73438,0 4.67188,0.53125 1.9375,0.53125 3.1875,1.64063 1.25,1.10937 1.82812,2.85937 0.57813,1.73438 0.57813,4.125 z m -6.4375,-9.9375 h -2.5 q -1.59375,0 -2.71875,0.23438 -1.10938,0.23437 -1.8125,0.70312 -0.70313,0.46875 -1.03125,1.14063 -0.32813,0.65625 -0.32813,1.51562 0,1.45313 0.92188,2.29688 0.9375,0.82812 2.57812,0.82812 1.375,0 2.53125,-0.70312 1.15625,-0.70313 2.35938,-2.0625 z m 26.22137,7.57813 q 0,1.14062 -0.14062,1.75 -0.14063,0.60937 -0.375,0.85937 -0.23438,0.25 -0.70313,0.45313 -0.45312,0.1875 -1.0625,0.32812 -0.60937,0.14063 -1.32812,0.21875 -0.71875,0.0781 -1.4375,0.0781 -1.95313,0 -3.39063,-0.5 -1.4375,-0.48438 -2.375,-1.51563 -0.9375,-1.03125 -1.375,-2.59375 -0.4375,-1.5625 -0.4375,-3.6875 v -11.90625 h -2.79687 q -0.48438,0 -0.75,-0.60937 -0.26563,-0.60938 -0.26563,-2.04688 0,-0.75 0.0625,-1.26562 0.0781,-0.53125 0.20313,-0.82813 0.125,-0.29687 0.3125,-0.42187 0.20312,-0.14063 0.46875,-0.14063 h 2.76562 v -5.17187 q 0,-0.26563 0.14063,-0.46875 0.14062,-0.21875 0.51562,-0.35938 0.375,-0.14062 1.01563,-0.20312 0.64062,-0.0625 1.57812,-0.0625 0.96875,0 1.59375,0.0625 0.64063,0.0625 1,0.20312 0.375,0.14063 0.53125,0.35938 0.15625,0.20312 0.15625,0.46875 v 5.17187 h 5.04688 q 0.26562,0 0.45312,0.14063 0.20313,0.125 0.32813,0.42187 0.14062,0.29688 0.20312,0.82813 0.0625,0.51562 0.0625,1.26562 0,1.4375 -0.26562,2.04688 -0.25,0.60937 -0.75,0.60937 h -5.07813 v 10.90625 q 0,1.90625 0.59375,2.85938 0.60938,0.95312 2.14063,0.95312 0.51562,0 0.9375,-0.0937 0.42187,-0.0937 0.73437,-0.20312 0.32813,-0.125 0.54688,-0.21875 0.23437,-0.0937 0.40625,-0.0937 0.15625,0 0.29687,0.0937 0.15625,0.0937 0.23438,0.375 0.0781,0.26562 0.14062,0.73437 0.0625,0.46875 0.0625,1.20313 z m 11.3003,2.28125 q 0,0.26562 -0.15625,0.46875 -0.15625,0.1875 -0.53125,0.32812 -0.375,0.125 -1,0.1875 -0.625,0.0625 -1.59375,0.0625 -0.96875,0 -1.59375,-0.0625 -0.625,-0.0625 -1,-0.1875 -0.375,-0.14062 -0.53125,-0.32812 -0.15625,-0.20313 -0.15625,-0.46875 v -23.17188 q 0,-0.26562 0.15625,-0.45312 0.15625,-0.20313 0.53125,-0.34375 0.375,-0.14063 1,-0.21875 0.625,-0.0781 1.59375,-0.0781 0.96875,0 1.59375,0.0781 0.625,0.0781 1,0.21875 0.375,0.14062 0.53125,0.34375 0.15625,0.1875 0.15625,0.45312 z m 0.5,-31.07813 q 0,1.96875 -0.8125,2.73438 -0.8125,0.75 -3,0.75 -2.20313,0 -2.98438,-0.71875 -0.76562,-0.73438 -0.76562,-2.64063 0,-1.98437 0.79687,-2.75 0.79688,-0.76562 3.01563,-0.76562 2.1875,0 2.96875,0.75 0.78125,0.73437 0.78125,2.64062 z m 29.51956,19.23438 q 0,2.96875 -0.78125,5.42187 -0.78125,2.4375 -2.375,4.21875 -1.57813,1.76563 -3.98438,2.73438 -2.39062,0.95312 -5.59375,0.95312 -3.09375,0 -5.39062,-0.85937 -2.28125,-0.85938 -3.79688,-2.5 -1.51562,-1.64063 -2.25,-4.03125 -0.71875,-2.39063 -0.71875,-5.46875 0,-2.96875 0.79688,-5.42188 0.79687,-2.46875 2.375,-4.21875 1.59375,-1.76562 3.96875,-2.71875 2.39062,-0.96875 5.59375,-0.96875 3.125,0 5.40625,0.84375 2.29687,0.84375 3.79687,2.48438 1.5,1.64062 2.21875,4.04687 0.73438,2.39063 0.73438,5.48438 z m -6.73438,0.26562 q 0,-1.71875 -0.28125,-3.15625 -0.26562,-1.45312 -0.92187,-2.51562 -0.65625,-1.07813 -1.73438,-1.67188 -1.07812,-0.60937 -2.71875,-0.60937 -1.45312,0 -2.54687,0.54687 -1.09375,0.53125 -1.79688,1.5625 -0.70312,1.01563 -1.0625,2.46875 -0.34375,1.4375 -0.34375,3.29688 0,1.71875 0.28125,3.17187 0.28125,1.4375 0.92188,2.5 0.64062,1.0625 1.73437,1.65625 1.09375,0.57813 2.70313,0.57813 1.48437,0 2.57812,-0.53125 1.09375,-0.53125 1.79688,-1.54688 0.70312,-1.01562 1.04687,-2.45312 0.34375,-1.45313 0.34375,-3.29688 z m 34.1066,11.57813 q 0,0.26562 -0.15625,0.46875 -0.15625,0.1875 -0.53125,0.32812 -0.35938,0.125 -1,0.1875 -0.625,0.0625 -1.5625,0.0625 -0.96875,0 -1.60938,-0.0625 -0.64062,-0.0625 -1,-0.1875 -0.35937,-0.14062 -0.51562,-0.32812 -0.15625,-0.20313 -0.15625,-0.46875 v -13.25 q 0,-1.6875 -0.25,-2.65625 -0.25,-0.96875 -0.71875,-1.65625 -0.46875,-0.6875 -1.21875,-1.0625 -0.73438,-0.375 -1.71875,-0.375 -1.25,0 -2.53125,0.90625 -1.28125,0.90625 -2.65625,2.65625 v 15.4375 q 0,0.26562 -0.15625,0.46875 -0.15625,0.1875 -0.53125,0.32812 -0.375,0.125 -1.00003,0.1875 -0.625,0.0625 -1.59375,0.0625 -0.96875,0 -1.59375,-0.0625 -0.625,-0.0625 -1,-0.1875 -0.375,-0.14062 -0.53125,-0.32812 -0.15625,-0.20313 -0.15625,-0.46875 V 474.3347 q 0,-0.26563 0.125,-0.45313 0.14062,-0.20312 0.46875,-0.32812 0.34375,-0.14063 0.875,-0.20313 0.53125,-0.0625 1.34375,-0.0625 0.82812,0 1.375,0.0625 0.54687,0.0625 0.84375,0.20313 0.31253,0.125 0.43753,0.32812 0.125,0.1875 0.125,0.45313 v 2.67187 q 1.9375,-2.07812 3.92188,-3.10937 2,-1.04688 4.15625,-1.04688 2.375,0 4,0.78125 1.625,0.78125 2.625,2.125 1,1.32813 1.4375,3.125 0.45312,1.79688 0.45312,4.32813 z m 12.992,0 q 0,0.26562 -0.15625,0.46875 -0.15625,0.1875 -0.53125,0.32812 -0.375,0.125 -1,0.1875 -0.625,0.0625 -1.59375,0.0625 -0.96875,0 -1.59375,-0.0625 -0.625,-0.0625 -1,-0.1875 -0.375,-0.14062 -0.53125,-0.32812 -0.15625,-0.20313 -0.15625,-0.46875 v -23.17188 q 0,-0.26562 0.15625,-0.45312 0.15625,-0.20313 0.53125,-0.34375 0.375,-0.14063 1,-0.21875 0.625,-0.0781 1.59375,-0.0781 0.96875,0 1.59375,0.0781 0.625,0.0781 1,0.21875 0.375,0.14062 0.53125,0.34375 0.15625,0.1875 0.15625,0.45312 z m 0.5,-31.07813 q 0,1.96875 -0.8125,2.73438 -0.8125,0.75 -3,0.75 -2.20312,0 -2.98437,-0.71875 -0.76563,-0.73438 -0.76563,-2.64063 0,-1.98437 0.79688,-2.75 0.79687,-0.76562 3.01562,-0.76562 2.1875,0 2.96875,0.75 0.78125,0.73437 0.78125,2.64062 z m 13.73828,28.21875 q 0,2.42188 -0.84375,3.26563 -0.84375,0.82812 -3.03125,0.82812 -2.1875,0 -3.03125,-0.8125 -0.82812,-0.82812 -0.82812,-3.125 0,-2.45312 0.84375,-3.28125 0.85937,-0.82812 3.0625,-0.82812 2.17187,0 3,0.82812 0.82812,0.8125 0.82812,3.125 z m 22.89966,-3.70312 q 0,1.98437 -0.75,3.5 -0.73437,1.5 -2.09375,2.51562 -1.35937,1.01563 -3.20312,1.51563 -1.84375,0.51562 -4.01563,0.51562 -1.29687,0 -2.48437,-0.20312 -1.1875,-0.1875 -2.125,-0.48438 -0.9375,-0.29687 -1.5625,-0.60937 -0.625,-0.3125 -0.90625,-0.57813 -0.28125,-0.28125 -0.4375,-0.85937 -0.15625,-0.59375 -0.15625,-1.73438 0,-0.76562 0.0469,-1.21875 0.0469,-0.45312 0.15625,-0.71875 0.10938,-0.28125 0.26563,-0.375 0.15625,-0.0937 0.39062,-0.0937 0.28125,0 0.84375,0.32813 0.5625,0.32812 1.39063,0.71875 0.82812,0.39062 1.9375,0.73437 1.10937,0.32813 2.51562,0.32813 0.89063,0 1.57813,-0.17188 0.6875,-0.1875 1.1875,-0.51562 0.51562,-0.34375 0.76562,-0.85938 0.26563,-0.53125 0.26563,-1.20312 0,-0.78125 -0.48438,-1.34375 -0.46875,-0.5625 -1.26562,-0.96875 -0.79688,-0.42188 -1.79688,-0.78125 -1,-0.375 -2.0625,-0.8125 -1.04687,-0.45313 -2.0625,-1.01563 -1,-0.57812 -1.79687,-1.40625 -0.78125,-0.84375 -1.26563,-2.01562 -0.48437,-1.17188 -0.48437,-2.8125 0,-1.65625 0.64062,-3.04688 0.65625,-1.40625 1.875,-2.39062 1.23438,-0.98438 2.98438,-1.53125 1.76562,-0.54688 3.95312,-0.54688 1.09375,0 2.125,0.15625 1.03125,0.15625 1.85938,0.39063 0.82812,0.23437 1.40625,0.51562 0.57812,0.26563 0.8125,0.46875 0.25,0.1875 0.35937,0.39063 0.10938,0.1875 0.15625,0.46875 0.0469,0.26562 0.0781,0.67187 0.0469,0.39063 0.0469,1 0,0.70313 -0.0469,1.14063 -0.0312,0.4375 -0.125,0.70312 -0.0781,0.26563 -0.23438,0.35938 -0.15625,0.0781 -0.375,0.0781 -0.23437,0 -0.73437,-0.26562 -0.48438,-0.28125 -1.23438,-0.59375 -0.73437,-0.3125 -1.71875,-0.57813 -0.96875,-0.28125 -2.21875,-0.28125 -0.89062,0 -1.54687,0.1875 -0.64063,0.1875 -1.0625,0.53125 -0.40625,0.32813 -0.625,0.78125 -0.20313,0.45313 -0.20313,0.98438 0,0.79687 0.48438,1.34375 0.5,0.54687 1.3125,0.96875 0.8125,0.42187 1.82812,0.78125 1.03125,0.35937 2.07813,0.79687 1.0625,0.42188 2.09375,1 1.03125,0.57813 1.82812,1.40625 0.8125,0.82813 1.3125,2 0.5,1.15625 0.5,2.73438 z m 18.06568,4.28125 q 0,1.14062 -0.14063,1.75 -0.14062,0.60937 -0.375,0.85937 -0.23437,0.25 -0.70312,0.45313 -0.45313,0.1875 -1.0625,0.32812 -0.60938,0.14063 -1.32813,0.21875 -0.71875,0.0781 -1.4375,0.0781 -1.95312,0 -3.39062,-0.5 -1.4375,-0.48438 -2.375,-1.51563 -0.9375,-1.03125 -1.375,-2.59375 -0.4375,-1.5625 -0.4375,-3.6875 v -11.90625 h -2.79688 q -0.48437,0 -0.75,-0.60937 -0.26562,-0.60938 -0.26562,-2.04688 0,-0.75 0.0625,-1.26562 0.0781,-0.53125 0.20312,-0.82813 0.125,-0.29687 0.3125,-0.42187 0.20313,-0.14063 0.46875,-0.14063 h 2.76563 v -5.17187 q 0,-0.26563 0.14062,-0.46875 0.14063,-0.21875 0.51563,-0.35938 0.375,-0.14062 1.01562,-0.20312 0.64063,-0.0625 1.57813,-0.0625 0.96875,0 1.59375,0.0625 0.64062,0.0625 1,0.20312 0.375,0.14063 0.53125,0.35938 0.15625,0.20312 0.15625,0.46875 v 5.17187 h 5.04687 q 0.26563,0 0.45313,0.14063 0.20312,0.125 0.32812,0.42187 0.14063,0.29688 0.20313,0.82813 0.0625,0.51562 0.0625,1.26562 0,1.4375 -0.26563,2.04688 -0.25,0.60937 -0.75,0.60937 h -5.07812 v 10.90625 q 0,1.90625 0.59375,2.85938 0.60937,0.95312 2.14062,0.95312 0.51563,0 0.9375,-0.0937 0.42188,-0.0937 0.73438,-0.20312 0.32812,-0.125 0.54687,-0.21875 0.23438,-0.0937 0.40625,-0.0937 0.15625,0 0.29688,0.0937 0.15625,0.0937 0.23437,0.375 0.0781,0.26562 0.14063,0.73437 0.0625,0.46875 0.0625,1.20313 z"
       fill="#000000" />
    <path
       inkscape:connector-curvature="0"
       id="path850"
       fill-rule="evenodd"
       d="m 286.11023,190.93701 h 93.38583 v 96.94488 h -93.38583 z"
       fill-opacity="0"
       fill="#000000" />
    <path
       inkscape:connector-curvature="0"
       id="path852"
       fill-rule="nonzero"
       d="m 324.61023,258.252 q 0,0.875 -0.0937,1.48437 -0.0937,0.60938 -0.26563,0.96875 -0.17187,0.35938 -0.39062,0.51563 -0.21875,0.15625 -0.5,0.15625 h -22.3125 q -0.25,0 -0.46875,-0.15625 -0.21875,-0.15625 -0.39063,-0.51563 -0.17187,-0.35937 -0.26562,-0.96875 -0.0937,-0.60937 -0.0937,-1.48437 0,-0.90625 0.0781,-1.51563 0.0781,-0.60937 0.25,-0.98437 0.17188,-0.375 0.39063,-0.54688 0.21875,-0.17187 0.5,-0.17187 h 7.53125 v -26.3125 l -6.5,3.59375 q -0.71875,0.34375 -1.17188,0.42187 -0.45312,0.0781 -0.71875,-0.1875 -0.26562,-0.26562 -0.35937,-0.92187 -0.0937,-0.65625 -0.0937,-1.84375 0,-0.75 0.0312,-1.23438 0.0312,-0.48437 0.15625,-0.82812 0.125,-0.34375 0.34375,-0.5625 0.21875,-0.21875 0.59375,-0.46875 l 8.6875,-5.625 q 0.15625,-0.125 0.39062,-0.20313 0.23438,-0.0781 0.60938,-0.125 0.375,-0.0469 0.98437,-0.0625 0.60938,-0.0156 1.57813,-0.0156 1.1875,0 1.92187,0.0469 0.73438,0.0469 1.10938,0.15625 0.375,0.10938 0.5,0.29688 0.125,0.1875 0.125,0.46875 v 33.40625 h 6.59375 q 0.28125,0 0.51562,0.17187 0.23438,0.17188 0.40625,0.54688 0.17188,0.375 0.25,0.98437 0.0781,0.60938 0.0781,1.51563 z m 34.0625,-8.5 q 0,1.59375 -0.32813,2.42187 -0.32812,0.82813 -0.89062,0.82813 h -3.59375 v 7.3125 q 0,0.3125 -0.1875,0.54687 -0.1875,0.23438 -0.65625,0.39063 -0.46875,0.15625 -1.21875,0.23437 -0.75,0.0781 -1.9375,0.0781 -1.125,0 -1.89063,-0.0781 -0.76562,-0.0781 -1.21875,-0.23437 -0.45312,-0.15625 -0.625,-0.39063 -0.17187,-0.23437 -0.17187,-0.54687 v -7.3125 h -15.46875 q -0.4375,0 -0.78125,-0.10938 -0.34375,-0.10937 -0.57813,-0.5 -0.23437,-0.39062 -0.34375,-1.125 -0.10937,-0.73437 -0.10937,-1.95312 0,-1 0.0469,-1.73438 0.0469,-0.73437 0.15625,-1.32812 0.10938,-0.59375 0.3125,-1.125 0.20313,-0.53125 0.51563,-1.125 l 12.5625,-22.15625 q 0.15625,-0.28125 0.53125,-0.48438 0.375,-0.20312 1.04687,-0.34375 0.67188,-0.14062 1.70313,-0.20312 1.03125,-0.0625 2.5,-0.0625 1.59375,0 2.71875,0.0781 1.125,0.0781 1.79687,0.25 0.67188,0.17188 0.98438,0.42188 0.3125,0.25 0.3125,0.59375 v 24.34375 h 3.59375 q 0.5,0 0.85937,0.76562 0.35938,0.76563 0.35938,2.54688 z m -12.71875,-21.90625 h -0.0625 l -10.65625,18.59375 h 10.71875 z"
       fill="#000000" />
    <path
       inkscape:connector-curvature="0"
       id="path854"
       fill-rule="evenodd"
       d="m 281.38058,507.1916 h 367.68503 v 58.17322 H 281.38058 Z"
       fill-opacity="0"
       fill="#000000" />
    <path
       inkscape:connector-curvature="0"
       id="path856"
       fill-rule="nonzero"
       d="m 435.34027,545.23975 q 0,0.45312 -0.0469,0.78125 -0.0312,0.3125 -0.10937,0.51562 -0.0781,0.20313 -0.20313,0.29688 -0.125,0.0781 -0.28125,0.0781 h -11.625 q -0.34375,0 -0.59375,-0.0625 -0.25,-0.0625 -0.40625,-0.23437 -0.15625,-0.1875 -0.23437,-0.53125 -0.0625,-0.34375 -0.0625,-0.89063 0,-0.51562 0.0469,-0.875 0.0469,-0.375 0.17188,-0.65625 0.125,-0.29687 0.3125,-0.5625 0.20312,-0.28125 0.51562,-0.60937 l 3.5,-3.75 q 1.04688,-1.09375 1.6875,-1.98438 0.64063,-0.90625 1,-1.64062 0.35938,-0.75 0.48438,-1.375 0.14062,-0.625 0.14062,-1.1875 0,-0.51563 -0.17187,-0.96875 -0.15625,-0.46875 -0.48438,-0.8125 -0.3125,-0.34375 -0.79687,-0.53125 -0.48438,-0.20313 -1.14063,-0.20313 -0.92187,0 -1.64062,0.23438 -0.70313,0.23437 -1.25,0.53125 -0.53125,0.28125 -0.89063,0.53125 -0.35937,0.23437 -0.5625,0.23437 -0.14062,0 -0.25,-0.0937 -0.0937,-0.0937 -0.15625,-0.3125 -0.0625,-0.21875 -0.10937,-0.57812 -0.0312,-0.375 -0.0312,-0.90625 0,-0.35938 0.0156,-0.59375 0.0312,-0.25 0.0781,-0.42188 0.0469,-0.1875 0.125,-0.3125 0.0781,-0.14062 0.26562,-0.32812 0.20313,-0.1875 0.71875,-0.46875 0.53125,-0.29688 1.29688,-0.5625 0.76562,-0.28125 1.6875,-0.46875 0.92187,-0.1875 1.92187,-0.1875 1.57813,0 2.75,0.40625 1.1875,0.39062 1.96875,1.10937 0.78125,0.70313 1.15625,1.6875 0.39063,0.96875 0.39063,2.09375 0,0.98438 -0.1875,1.9375 -0.1875,0.95313 -0.78125,2.0625 -0.59375,1.09375 -1.67188,2.4375 -1.07812,1.32813 -2.85937,3.09375 l -2.35938,2.42188 h 7.96875 q 0.15625,0 0.28125,0.0937 0.14063,0.0937 0.23438,0.29687 0.0937,0.1875 0.14062,0.51563 0.0469,0.3125 0.0469,0.75 z m 16.53125,-3.75 q 0,1.375 -0.48438,2.45312 -0.46875,1.07813 -1.40625,1.82813 -0.92187,0.73437 -2.29687,1.125 -1.375,0.375 -3.17188,0.375 -1.71875,0 -3.01562,-0.34375 -1.29688,-0.34375 -2.17188,-1 -0.875,-0.67188 -1.3125,-1.64063 -0.4375,-0.98437 -0.4375,-2.25 0,-0.85937 0.25,-1.60937 0.26563,-0.76563 0.76563,-1.40625 0.51562,-0.65625 1.26562,-1.21875 0.76563,-0.57813 1.75,-1.09375 -0.79687,-0.4375 -1.4375,-0.9375 -0.64062,-0.51563 -1.09375,-1.10938 -0.45312,-0.60937 -0.6875,-1.32812 -0.23437,-0.71875 -0.23437,-1.5625 0,-1.21875 0.42187,-2.20313 0.4375,-1 1.28125,-1.71875 0.85938,-0.73437 2.14063,-1.125 1.28125,-0.39062 2.96875,-0.39062 1.67187,0 2.85937,0.35937 1.20313,0.35938 1.96875,1.01563 0.76563,0.65625 1.125,1.57812 0.375,0.90625 0.375,2.01563 0,0.73437 -0.25,1.4375 -0.23437,0.6875 -0.67187,1.3125 -0.4375,0.625 -1.07813,1.1875 -0.64062,0.54687 -1.45312,1 0.95312,0.5 1.70312,1.0625 0.75,0.5625 1.26563,1.21875 0.51562,0.64062 0.78125,1.375 0.28125,0.73437 0.28125,1.59375 z m -4.53125,-9.8125 q 0,-0.54688 -0.15625,-0.98438 -0.15625,-0.4375 -0.5,-0.73437 -0.32813,-0.3125 -0.82813,-0.46875 -0.48437,-0.15625 -1.15625,-0.15625 -1.3125,0 -1.95312,0.60937 -0.64063,0.59375 -0.64063,1.65625 0,0.5 0.15625,0.92188 0.17188,0.42187 0.51563,0.79687 0.34375,0.375 0.89062,0.73438 0.54688,0.35937 1.29688,0.76562 1.14062,-0.67187 1.75,-1.4375 0.625,-0.76562 0.625,-1.70312 z m 0.46875,10.09375 q 0,-0.57813 -0.20313,-1.04688 -0.1875,-0.48437 -0.60937,-0.90625 -0.40625,-0.42187 -1.03125,-0.8125 -0.625,-0.39062 -1.45313,-0.79687 -0.71875,0.39062 -1.26562,0.78125 -0.54688,0.39062 -0.90625,0.82812 -0.35938,0.42188 -0.54688,0.90625 -0.17187,0.46875 -0.17187,1.01563 0,1.21875 0.78125,1.85937 0.79687,0.64063 2.35937,0.64063 1.53125,0 2.28125,-0.65625 0.76563,-0.65625 0.76563,-1.8125 z m 11.625,2.89062 q 0,1.45313 -0.51563,1.95313 -0.5,0.5 -1.8125,0.5 -1.3125,0 -1.8125,-0.48438 -0.5,-0.5 -0.5,-1.875 0,-1.46875 0.5,-1.96875 0.51563,-0.5 1.84375,-0.5 1.29688,0 1.79688,0.5 0.5,0.48438 0.5,1.875 z m 17.29687,-7.9375 q 0,2.42188 -0.39062,4.375 -0.39063,1.95313 -1.28125,3.32813 -0.875,1.375 -2.29688,2.10937 -1.40625,0.73438 -3.45312,0.73438 -2.07813,0 -3.4375,-0.70313 -1.35938,-0.71875 -2.15625,-2.04687 -0.79688,-1.34375 -1.125,-3.26563 -0.3125,-1.9375 -0.3125,-4.375 0,-2.40625 0.39062,-4.35937 0.40625,-1.96875 1.28125,-3.34375 0.89063,-1.375 2.29688,-2.10938 1.42187,-0.73437 3.45312,-0.73437 2.07813,0 3.4375,0.71875 1.375,0.70312 2.17188,2.04687 0.79687,1.32813 1.10937,3.26563 0.3125,1.92187 0.3125,4.35937 z m -4.14062,0.20313 q 0,-1.4375 -0.0781,-2.53125 -0.0781,-1.10938 -0.25,-1.92188 -0.15625,-0.8125 -0.40625,-1.375 -0.23437,-0.5625 -0.57812,-0.89062 -0.34375,-0.34375 -0.78125,-0.48438 -0.4375,-0.14062 -0.96875,-0.14062 -0.92188,0 -1.53125,0.45312 -0.59375,0.4375 -0.95313,1.32813 -0.34375,0.89062 -0.48437,2.21875 -0.14063,1.32812 -0.14063,3.09375 0,2.15625 0.17188,3.57812 0.17187,1.40625 0.53125,2.25 0.375,0.82813 0.95312,1.17188 0.57813,0.32812 1.39063,0.32812 0.60937,0 1.07812,-0.1875 0.46875,-0.20312 0.8125,-0.59375 0.35938,-0.39062 0.59375,-0.98437 0.23438,-0.59375 0.375,-1.375 0.15625,-0.78125 0.20313,-1.76563 0.0625,-0.98437 0.0625,-2.17187 z m 20.26562,4.5625 q 0,1.375 -0.48437,2.45312 -0.46875,1.07813 -1.40625,1.82813 -0.92188,0.73437 -2.29688,1.125 -1.375,0.375 -3.17187,0.375 -1.71875,0 -3.01563,-0.34375 -1.29687,-0.34375 -2.17187,-1 -0.875,-0.67188 -1.3125,-1.64063 -0.4375,-0.98437 -0.4375,-2.25 0,-0.85937 0.25,-1.60937 0.26562,-0.76563 0.76562,-1.40625 0.51563,-0.65625 1.26563,-1.21875 0.76562,-0.57813 1.75,-1.09375 -0.79688,-0.4375 -1.4375,-0.9375 -0.64063,-0.51563 -1.09375,-1.10938 -0.45313,-0.60937 -0.6875,-1.32812 -0.23438,-0.71875 -0.23438,-1.5625 0,-1.21875 0.42188,-2.20313 0.4375,-1 1.28125,-1.71875 0.85937,-0.73437 2.14062,-1.125 1.28125,-0.39062 2.96875,-0.39062 1.67188,0 2.85938,0.35937 1.20312,0.35938 1.96875,1.01563 0.76562,0.65625 1.125,1.57812 0.375,0.90625 0.375,2.01563 0,0.73437 -0.25,1.4375 -0.23438,0.6875 -0.67188,1.3125 -0.4375,0.625 -1.07812,1.1875 -0.64063,0.54687 -1.45313,1 0.95313,0.5 1.70313,1.0625 0.75,0.5625 1.26562,1.21875 0.51563,0.64062 0.78125,1.375 0.28125,0.73437 0.28125,1.59375 z m -4.53125,-9.8125 q 0,-0.54688 -0.15625,-0.98438 -0.15625,-0.4375 -0.5,-0.73437 -0.32812,-0.3125 -0.82812,-0.46875 -0.48438,-0.15625 -1.15625,-0.15625 -1.3125,0 -1.95313,0.60937 -0.64062,0.59375 -0.64062,1.65625 0,0.5 0.15625,0.92188 0.17187,0.42187 0.51562,0.79687 0.34375,0.375 0.89063,0.73438 0.54687,0.35937 1.29687,0.76562 1.14063,-0.67187 1.75,-1.4375 0.625,-0.76562 0.625,-1.70312 z m 0.46875,10.09375 q 0,-0.57813 -0.20312,-1.04688 -0.1875,-0.48437 -0.60938,-0.90625 -0.40625,-0.42187 -1.03125,-0.8125 -0.625,-0.39062 -1.45312,-0.79687 -0.71875,0.39062 -1.26563,0.78125 -0.54687,0.39062 -0.90625,0.82812 -0.35937,0.42188 -0.54687,0.90625 -0.17188,0.46875 -0.17188,1.01563 0,1.21875 0.78125,1.85937 0.79688,0.64063 2.35938,0.64063 1.53125,0 2.28125,-0.65625 0.76562,-0.65625 0.76562,-1.8125 z m 20.28125,-1.60938 q 0,1.53125 -0.46875,2.84375 -0.46875,1.29688 -1.375,2.25 -0.90625,0.9375 -2.23437,1.48438 -1.32813,0.53125 -3.0625,0.53125 -1.40625,0 -2.45313,-0.32813 -1.04687,-0.3125 -1.8125,-0.90625 -0.76562,-0.60937 -1.25,-1.46875 -0.48437,-0.85937 -0.78125,-1.9375 -0.28125,-1.07812 -0.39062,-2.34375 -0.10938,-1.26562 -0.10938,-2.6875 0,-1.1875 0.10938,-2.48437 0.125,-1.29688 0.45312,-2.54688 0.34375,-1.25 0.95313,-2.375 0.60937,-1.14062 1.5625,-1.98437 0.96875,-0.85938 2.32812,-1.35938 1.375,-0.5 3.25,-0.5 0.59375,0 1.1875,0.0781 0.60938,0.0625 1.125,0.17187 0.51563,0.10938 0.875,0.25 0.35938,0.14063 0.46875,0.25 0.125,0.0937 0.1875,0.21875 0.0625,0.125 0.0937,0.28125 0.0469,0.14063 0.0625,0.35938 0.0156,0.21875 0.0156,0.53125 0,0.48437 -0.0312,0.8125 -0.0156,0.3125 -0.0781,0.5 -0.0625,0.17187 -0.17187,0.25 -0.10938,0.0781 -0.26563,0.0781 -0.1875,0 -0.48437,-0.0937 -0.29688,-0.10937 -0.71875,-0.23437 -0.42188,-0.125 -1,-0.21875 -0.5625,-0.0937 -1.3125,-0.0937 -1.26563,0 -2.14063,0.46875 -0.875,0.46875 -1.42187,1.28125 -0.54688,0.79687 -0.79688,1.85937 -0.25,1.0625 -0.26562,2.25 0.34375,-0.21875 0.78125,-0.4375 0.45312,-0.21875 0.96875,-0.375 0.53125,-0.15625 1.14062,-0.25 0.60938,-0.10937 1.29688,-0.10937 1.53125,0 2.625,0.42187 1.09375,0.42188 1.78125,1.20313 0.70312,0.78125 1.03125,1.89062 0.32812,1.10938 0.32812,2.46875 z m -4.03125,0.39063 q 0,-0.79688 -0.14062,-1.39063 -0.14063,-0.60937 -0.45313,-1.01562 -0.3125,-0.42188 -0.82812,-0.625 -0.51563,-0.21875 -1.25,-0.21875 -0.4375,0 -0.85938,0.0781 -0.42187,0.0781 -0.82812,0.21875 -0.40625,0.14063 -0.78125,0.34375 -0.375,0.1875 -0.70313,0.40625 0,1.67188 0.1875,2.79688 0.1875,1.10937 0.54688,1.76562 0.375,0.65625 0.92187,0.9375 0.5625,0.26563 1.29688,0.26563 0.71875,0 1.25,-0.26563 0.54687,-0.26562 0.90625,-0.75 0.35937,-0.48437 0.54687,-1.125 0.1875,-0.65625 0.1875,-1.42187 z"
       fill="#666666" />
  </g>
</svg>
