<svg version="1.1" viewBox="0.0 0.0 960.0 720.0" fill="none" stroke="none" stroke-linecap="square" stroke-miterlimit="10" xmlns:xlink="http://www.w3.org/1999/xlink" xmlns="http://www.w3.org/2000/svg"><clipPath id="p.0"><path d="m0 0l960.0 0l0 720.0l-960.0 0l0 -720.0z" clip-rule="nonzero"/></clipPath><g clip-path="url(#p.0)"><path fill="#000000" fill-opacity="0.0" d="m0 0l960.0 0l0 720.0l-960.0 0z" fill-rule="evenodd"/><path fill="#ffffff" d="m267.1916 182.66011l396.063 0l0 398.42523l-396.063 0z" fill-rule="evenodd"/><path stroke="#000000" stroke-width="24.0" stroke-linejoin="round" stroke-linecap="butt" d="m267.1916 182.66011l396.063 0l0 398.42523l-396.063 0z" fill-rule="evenodd"/><path fill="#000000" fill-opacity="0.0" d="m254.18373 211.32152l422.07874 0l0 297.3543l-422.07874 0z" fill-rule="evenodd"/><path fill="#000000" d="m484.53616 397.02838q0 11.421875 -4.25 20.046875q-4.25 8.625 -11.53125 14.390625q-7.28125 5.765625 -17.03125 8.6875q-9.734375 2.90625 -20.828125 2.90625q-7.5 0 -13.9375 -1.234375q-6.4375 -1.234375 -11.375 -2.96875q-4.921875 -1.734375 -8.21875 -3.640625q-3.296875 -1.90625 -4.765625 -3.359375q-1.453125 -1.453125 -2.078125 -4.1875q-0.609375 -2.75 -0.609375 -7.90625q0 -3.46875 0.21875 -5.8125q0.234375 -2.359375 0.734375 -3.8125q0.515625 -1.453125 1.34375 -2.0625q0.84375 -0.625 1.96875 -0.625q1.5625 0 4.421875 1.84375q2.859375 1.84375 7.328125 4.09375q4.484375 2.234375 10.6875 4.09375q6.21875 1.84375 14.40625 1.84375q5.375 0 9.625 -1.28125q4.25 -1.296875 7.21875 -3.640625q2.96875 -2.359375 4.53125 -5.828125q1.578125 -3.484375 1.578125 -7.734375q0 -4.921875 -2.6875 -8.453125q-2.6875 -3.53125 -7.0 -6.265625q-4.3125 -2.75 -9.796875 -5.15625q-5.484375 -2.40625 -11.3125 -5.09375q-5.828125 -2.6875 -11.3125 -6.09375q-5.484375 -3.421875 -9.796875 -8.171875q-4.3125 -4.765625 -7.0 -11.265625q-2.6875 -6.5 -2.6875 -15.5625q0 -10.421875 3.859375 -18.3125q3.875 -7.890625 10.421875 -13.09375q6.546875 -5.21875 15.453125 -7.78125q8.90625 -2.578125 18.859375 -2.578125q5.15625 0 10.296875 0.78125q5.15625 0.78125 9.640625 2.125q4.484375 1.34375 7.953125 3.03125q3.46875 1.671875 4.578125 2.796875q1.125 1.109375 1.515625 1.90625q0.40625 0.78125 0.671875 2.078125q0.28125 1.28125 0.390625 3.234375q0.125 1.953125 0.125 4.875q0 3.25 -0.171875 5.484375q-0.171875 2.234375 -0.5625 3.703125q-0.390625 1.453125 -1.125 2.125q-0.71875 0.65625 -1.953125 0.65625q-1.234375 0 -3.921875 -1.5625q-2.6875 -1.5625 -6.609375 -3.40625q-3.90625 -1.859375 -9.0625 -3.359375q-5.15625 -1.515625 -11.3125 -1.515625q-4.8125 0 -8.40625 1.171875q-3.578125 1.171875 -5.984375 3.25q-2.40625 2.078125 -3.578125 4.984375q-1.171875 2.90625 -1.171875 6.15625q0 4.8125 2.625 8.34375q2.625 3.53125 7.046875 6.28125q4.4375 2.734375 10.03125 5.140625q5.59375 2.40625 11.421875 5.09375q5.828125 2.6875 11.421875 6.109375q5.59375 3.40625 9.953125 8.171875q4.375 4.75 7.0625 11.1875q2.6875 6.4375 2.6875 15.171875zm49.04959 39.640625q0 1.125 -0.671875 1.96875q-0.671875 0.84375 -2.296875 1.40625q-1.625 0.546875 -4.3125 0.828125q-2.6875 0.28125 -6.828125 0.28125q-4.140625 0 -6.828125 -0.28125q-2.6874695 -0.28125 -4.3124695 -0.828125q-1.625 -0.5625 -2.296875 -1.40625q-0.671875 -0.84375 -0.671875 -1.96875l0 -99.65625q0 -1.125 0.671875 -1.953125q0.671875 -0.84375 2.296875 -1.453125q1.625 -0.625 4.3124695 -0.953125q2.6875 -0.34375 6.828125 -0.34375q4.140625 0 6.828125 0.34375q2.6875 0.328125 4.3125 0.953125q1.625 0.609375 2.296875 1.453125q0.671875 0.828125 0.671875 1.953125l0 99.65625zm2.125 -133.6875q0 8.5 -3.46875 11.75q-3.46875 3.25 -12.875 3.25q-9.5155945 0 -12.8280945 -3.125q-3.296875 -3.140625 -3.296875 -11.328125q0 -8.5 3.40625 -11.796875q3.421875 -3.3125 12.9374695 -3.3125q9.40625 0 12.765625 3.1875q3.359375 3.1875 3.359375 11.375z" fill-rule="nonzero"/><path fill="#000000" fill-opacity="0.0" d="m257.74277 438.24408l414.96066 0l0 84.031494l-414.96066 0z" fill-rule="evenodd"/><path fill="#000000" d="m355.55643 488.33472q0 2.65625 -0.984375 4.671875q-0.984375 2.0 -2.6875 3.34375q-1.6875 1.34375 -3.953125 2.015625q-2.265625 0.671875 -4.84375 0.671875q-1.75 0 -3.25 -0.28125q-1.484375 -0.28125 -2.640625 -0.6875q-1.140625 -0.40625 -1.90625 -0.84375q-0.765625 -0.453125 -1.109375 -0.78125q-0.34375 -0.34375 -0.484375 -0.984375q-0.140625 -0.640625 -0.140625 -1.828125q0 -0.8125 0.046875 -1.359375q0.0625 -0.546875 0.171875 -0.875q0.125 -0.34375 0.3125 -0.484375q0.203125 -0.15625 0.453125 -0.15625q0.375 0 1.03125 0.4375q0.671875 0.421875 1.703125 0.953125q1.046875 0.515625 2.484375 0.953125q1.453125 0.421875 3.359375 0.421875q1.25 0 2.234375 -0.296875q0.984375 -0.296875 1.671875 -0.84375q0.703125 -0.546875 1.0625 -1.359375q0.359375 -0.8125 0.359375 -1.796875q0 -1.140625 -0.625 -1.953125q-0.625 -0.828125 -1.625 -1.46875q-1.0 -0.640625 -2.28125 -1.203125q-1.265625 -0.5625 -2.625 -1.1875q-1.359375 -0.625 -2.640625 -1.40625q-1.265625 -0.796875 -2.265625 -1.90625q-1.0 -1.109375 -1.625 -2.609375q-0.625 -1.515625 -0.625 -3.625q0 -2.421875 0.890625 -4.25q0.90625 -1.84375 2.421875 -3.046875q1.53125 -1.21875 3.59375 -1.8125q2.078125 -0.609375 4.390625 -0.609375q1.203125 0 2.390625 0.1875q1.203125 0.1875 2.234375 0.5q1.046875 0.3125 1.859375 0.703125q0.8125 0.390625 1.0625 0.65625q0.265625 0.25 0.359375 0.4375q0.09375 0.171875 0.15625 0.484375q0.0625 0.296875 0.078125 0.75q0.03125 0.453125 0.03125 1.125q0 0.765625 -0.046875 1.28125q-0.03125 0.515625 -0.125 0.859375q-0.078125 0.34375 -0.25 0.5q-0.171875 0.140625 -0.453125 0.140625q-0.296875 0 -0.921875 -0.359375q-0.625 -0.359375 -1.53125 -0.78125q-0.90625 -0.4375 -2.109375 -0.78125q-1.203125 -0.359375 -2.625 -0.359375q-1.125 0 -1.96875 0.28125q-0.828125 0.265625 -1.390625 0.75q-0.546875 0.484375 -0.828125 1.15625q-0.265625 0.671875 -0.265625 1.421875q0 1.125 0.609375 1.953125q0.609375 0.8125 1.640625 1.453125q1.03125 0.640625 2.328125 1.203125q1.296875 0.546875 2.65625 1.171875q1.359375 0.625 2.65625 1.421875q1.296875 0.796875 2.3125 1.90625q1.015625 1.109375 1.640625 2.609375q0.625 1.484375 0.625 3.515625zm11.408997 9.21875q0 0.265625 -0.15625 0.46875q-0.15625 0.1875 -0.53125 0.328125q-0.375 0.125 -1.0 0.1875q-0.625 0.0625 -1.59375 0.0625q-0.96875 0 -1.59375 -0.0625q-0.625 -0.0625 -1.0 -0.1875q-0.375 -0.140625 -0.53125 -0.328125q-0.15625 -0.203125 -0.15625 -0.46875l0 -23.171875q0 -0.265625 0.15625 -0.453125q0.15625 -0.203125 0.53125 -0.34375q0.375 -0.140625 1.0 -0.21875q0.625 -0.078125 1.59375 -0.078125q0.96875 0 1.59375 0.078125q0.625 0.078125 1.0 0.21875q0.375 0.140625 0.53125 0.34375q0.15625 0.1875 0.15625 0.453125l0 23.171875zm0.5 -31.078125q0 1.96875 -0.8125 2.734375q-0.8125 0.75 -3.0 0.75q-2.203125 0 -2.984375 -0.71875q-0.765625 -0.734375 -0.765625 -2.640625q0 -1.984375 0.796875 -2.75q0.796875 -0.765625 3.015625 -0.765625q2.1875 0 2.96875 0.75q0.78125 0.734375 0.78125 2.640625zm19.785187 28.796875q0 1.140625 -0.140625 1.75q-0.140625 0.609375 -0.375 0.859375q-0.234375 0.25 -0.703125 0.453125q-0.453125 0.1875 -1.0625 0.328125q-0.609375 0.140625 -1.328125 0.21875q-0.71875 0.078125 -1.4375 0.078125q-1.953125 0 -3.390625 -0.5q-1.4375 -0.484375 -2.375 -1.515625q-0.9375 -1.03125 -1.375 -2.59375q-0.4375 -1.5625 -0.4375 -3.6875l0 -11.90625l-2.796875 0q-0.484375 0 -0.75 -0.609375q-0.265625 -0.609375 -0.265625 -2.046875q0 -0.75 0.0625 -1.265625q0.078125 -0.53125 0.203125 -0.828125q0.125 -0.296875 0.3125 -0.421875q0.203125 -0.140625 0.46875 -0.140625l2.765625 0l0 -5.171875q0 -0.265625 0.140625 -0.46875q0.140625 -0.21875 0.515625 -0.359375q0.375 -0.140625 1.015625 -0.203125q0.640625 -0.0625 1.578125 -0.0625q0.96875 0 1.59375 0.0625q0.640625 0.0625 1.0 0.203125q0.375 0.140625 0.53125 0.359375q0.15625 0.203125 0.15625 0.46875l0 5.171875l5.046875 0q0.265625 0 0.453125 0.140625q0.203125 0.125 0.328125 0.421875q0.140625 0.296875 0.203125 0.828125q0.0625 0.515625 0.0625 1.265625q0 1.4375 -0.265625 2.046875q-0.25 0.609375 -0.75 0.609375l-5.078125 0l0 10.90625q0 1.90625 0.59375 2.859375q0.609375 0.953125 2.140625 0.953125q0.515625 0 0.9375 -0.09375q0.421875 -0.09375 0.734375 -0.203125q0.328125 -0.125 0.546875 -0.21875q0.234375 -0.09375 0.40625 -0.09375q0.15625 0 0.296875 0.09375q0.15625 0.09375 0.234375 0.375q0.078125 0.265625 0.140625 0.734375q0.0625 0.46875 0.0625 1.203125zm26.769043 2.28125q0 0.265625 -0.140625 0.46875q-0.125 0.1875 -0.453125 0.328125q-0.3125 0.125 -0.859375 0.1875q-0.53125 0.0625 -1.328125 0.0625q-0.859375 0 -1.40625 -0.0625q-0.53125 -0.0625 -0.84375 -0.1875q-0.3125 -0.140625 -0.4375 -0.328125q-0.125 -0.203125 -0.125 -0.46875l0 -2.671875q-1.9375 2.078125 -3.9375 3.125q-1.984375 1.03125 -4.109375 1.03125q-2.40625 0 -4.03125 -0.78125q-1.625 -0.78125 -2.625 -2.125q-1.0 -1.359375 -1.4375 -3.140625q-0.421875 -1.78125 -0.421875 -4.4375l0 -14.21875q0 -0.265625 0.140625 -0.453125q0.140625 -0.203125 0.515625 -0.328125q0.375 -0.140625 1.015625 -0.203125q0.640625 -0.0625 1.578125 -0.0625q0.96875 0 1.59375 0.0625q0.625 0.0625 1.0 0.203125q0.375 0.125 0.53125 0.328125q0.15625 0.1875 0.15625 0.453125l0 13.125q0 1.8125 0.234375 2.78125q0.234375 0.96875 0.71875 1.65625q0.484375 0.6875 1.21875 1.0625q0.75 0.375 1.734375 0.375q1.25 0 2.515625 -0.90625q1.265625 -0.90625 2.6875 -2.65625l0 -15.4375q0 -0.265625 0.140625 -0.453125q0.15625 -0.203125 0.53125 -0.328125q0.375 -0.140625 1.0 -0.203125q0.625 -0.0625 1.59375 -0.0625q0.953125 0 1.578125 0.0625q0.625 0.0625 0.984375 0.203125q0.375 0.125 0.53125 0.328125q0.15625 0.1875 0.15625 0.453125l0 23.21875zm26.38263 0.078125q0 0.375 -0.265625 0.578125q-0.265625 0.203125 -0.828125 0.296875q-0.546875 0.09375 -1.640625 0.09375q-1.171875 0 -1.71875 -0.09375q-0.53125 -0.09375 -0.75 -0.296875q-0.21875 -0.203125 -0.21875 -0.578125l0 -1.84375q-1.4375 1.53125 -3.28125 2.390625q-1.828125 0.859375 -4.0625 0.859375q-1.84375 0 -3.40625 -0.484375q-1.546875 -0.46875 -2.6875 -1.421875q-1.125 -0.953125 -1.75 -2.359375q-0.625 -1.40625 -0.625 -3.28125q0 -2.03125 0.796875 -3.53125q0.796875 -1.5 2.375 -2.46875q1.578125 -0.984375 3.921875 -1.453125q2.34375 -0.46875 5.4375 -0.46875l2.265625 0l0 -1.40625q0 -1.09375 -0.21875 -1.90625q-0.21875 -0.828125 -0.734375 -1.375q-0.5 -0.546875 -1.359375 -0.796875q-0.84375 -0.265625 -2.09375 -0.265625q-1.640625 0 -2.9375 0.375q-1.28125 0.359375 -2.265625 0.796875q-0.984375 0.4375 -1.65625 0.8125q-0.65625 0.359375 -1.078125 0.359375q-0.28125 0 -0.515625 -0.171875q-0.21875 -0.1875 -0.359375 -0.53125q-0.140625 -0.34375 -0.21875 -0.828125q-0.078125 -0.5 -0.078125 -1.09375q0 -0.8125 0.125 -1.28125q0.140625 -0.46875 0.5 -0.84375q0.359375 -0.375 1.265625 -0.828125q0.921875 -0.46875 2.140625 -0.859375q1.234375 -0.390625 2.671875 -0.625q1.453125 -0.25 2.984375 -0.25q2.734375 0 4.671875 0.53125q1.9375 0.53125 3.1875 1.640625q1.25 1.109375 1.828125 2.859375q0.578125 1.734375 0.578125 4.125l0 15.625zm-6.4375 -9.9375l-2.5 0q-1.59375 0 -2.71875 0.234375q-1.109375 0.234375 -1.8125 0.703125q-0.703125 0.46875 -1.03125 1.140625q-0.328125 0.65625 -0.328125 1.515625q0 1.453125 0.921875 2.296875q0.9375 0.828125 2.578125 0.828125q1.375 0 2.53125 -0.703125q1.15625 -0.703125 2.359375 -2.0625l0 -3.953125zm26.221375 7.578125q0 1.140625 -0.140625 1.75q-0.140625 0.609375 -0.375 0.859375q-0.234375 0.25 -0.703125 0.453125q-0.453125 0.1875 -1.0625 0.328125q-0.609375 0.140625 -1.328125 0.21875q-0.71875 0.078125 -1.4375 0.078125q-1.953125 0 -3.390625 -0.5q-1.4375 -0.484375 -2.375 -1.515625q-0.9375 -1.03125 -1.375 -2.59375q-0.4375 -1.5625 -0.4375 -3.6875l0 -11.90625l-2.796875 0q-0.484375 0 -0.75 -0.609375q-0.265625 -0.609375 -0.265625 -2.046875q0 -0.75 0.0625 -1.265625q0.078125 -0.53125 0.203125 -0.828125q0.125 -0.296875 0.3125 -0.421875q0.203125 -0.140625 0.46875 -0.140625l2.765625 0l0 -5.171875q0 -0.265625 0.140625 -0.46875q0.140625 -0.21875 0.515625 -0.359375q0.375 -0.140625 1.015625 -0.203125q0.640625 -0.0625 1.578125 -0.0625q0.96875 0 1.59375 0.0625q0.640625 0.0625 1.0 0.203125q0.375 0.140625 0.53125 0.359375q0.15625 0.203125 0.15625 0.46875l0 5.171875l5.046875 0q0.265625 0 0.453125 0.140625q0.203125 0.125 0.328125 0.421875q0.140625 0.296875 0.203125 0.828125q0.0625 0.515625 0.0625 1.265625q0 1.4375 -0.265625 2.046875q-0.25 0.609375 -0.75 0.609375l-5.078125 0l0 10.90625q0 1.90625 0.59375 2.859375q0.609375 0.953125 2.140625 0.953125q0.515625 0 0.9375 -0.09375q0.421875 -0.09375 0.734375 -0.203125q0.328125 -0.125 0.546875 -0.21875q0.234375 -0.09375 0.40625 -0.09375q0.15625 0 0.296875 0.09375q0.15625 0.09375 0.234375 0.375q0.078125 0.265625 0.140625 0.734375q0.0625 0.46875 0.0625 1.203125zm11.300293 2.28125q0 0.265625 -0.15625 0.46875q-0.15625 0.1875 -0.53125 0.328125q-0.375 0.125 -1.0 0.1875q-0.625 0.0625 -1.59375 0.0625q-0.96875 0 -1.59375 -0.0625q-0.625 -0.0625 -1.0 -0.1875q-0.375 -0.140625 -0.53125 -0.328125q-0.15625 -0.203125 -0.15625 -0.46875l0 -23.171875q0 -0.265625 0.15625 -0.453125q0.15625 -0.203125 0.53125 -0.34375q0.375 -0.140625 1.0 -0.21875q0.625 -0.078125 1.59375 -0.078125q0.96875 0 1.59375 0.078125q0.625 0.078125 1.0 0.21875q0.375 0.140625 0.53125 0.34375q0.15625 0.1875 0.15625 0.453125l0 23.171875zm0.5 -31.078125q0 1.96875 -0.8125 2.734375q-0.8125 0.75 -3.0 0.75q-2.203125 0 -2.984375 -0.71875q-0.765625 -0.734375 -0.765625 -2.640625q0 -1.984375 0.796875 -2.75q0.796875 -0.765625 3.015625 -0.765625q2.1875 0 2.96875 0.75q0.78125 0.734375 0.78125 2.640625zm29.519562 19.234375q0 2.96875 -0.78125 5.421875q-0.78125 2.4375 -2.375 4.21875q-1.578125 1.765625 -3.984375 2.734375q-2.390625 0.953125 -5.59375 0.953125q-3.09375 0 -5.390625 -0.859375q-2.28125 -0.859375 -3.796875 -2.5q-1.515625 -1.640625 -2.25 -4.03125q-0.71875 -2.390625 -0.71875 -5.46875q0 -2.96875 0.796875 -5.421875q0.796875 -2.46875 2.375 -4.21875q1.59375 -1.765625 3.96875 -2.71875q2.390625 -0.96875 5.59375 -0.96875q3.125 0 5.40625 0.84375q2.296875 0.84375 3.796875 2.484375q1.5 1.640625 2.21875 4.046875q0.734375 2.390625 0.734375 5.484375zm-6.734375 0.265625q0 -1.71875 -0.28125 -3.15625q-0.265625 -1.453125 -0.921875 -2.515625q-0.65625 -1.078125 -1.734375 -1.671875q-1.078125 -0.609375 -2.71875 -0.609375q-1.453125 0 -2.546875 0.546875q-1.09375 0.53125 -1.796875 1.5625q-0.703125 1.015625 -1.0625 2.46875q-0.34375 1.4375 -0.34375 3.296875q0 1.71875 0.28125 3.171875q0.28125 1.4375 0.921875 2.5q0.640625 1.0625 1.734375 1.65625q1.09375 0.578125 2.703125 0.578125q1.484375 0 2.578125 -0.53125q1.09375 -0.53125 1.796875 -1.546875q0.703125 -1.015625 1.046875 -2.453125q0.34375 -1.453125 0.34375 -3.296875zm34.106598 11.578125q0 0.265625 -0.15625 0.46875q-0.15625 0.1875 -0.53125 0.328125q-0.359375 0.125 -1.0 0.1875q-0.625 0.0625 -1.5625 0.0625q-0.96875 0 -1.609375 -0.0625q-0.640625 -0.0625 -1.0 -0.1875q-0.359375 -0.140625 -0.515625 -0.328125q-0.15625 -0.203125 -0.15625 -0.46875l0 -13.25q0 -1.6875 -0.25 -2.65625q-0.25 -0.96875 -0.71875 -1.65625q-0.46875 -0.6875 -1.21875 -1.0625q-0.734375 -0.375 -1.71875 -0.375q-1.25 0 -2.53125 0.90625q-1.28125 0.90625 -2.65625 2.65625l0 15.4375q0 0.265625 -0.15625 0.46875q-0.15625 0.1875 -0.53125 0.328125q-0.375 0.125 -1.0000305 0.1875q-0.625 0.0625 -1.59375 0.0625q-0.96875 0 -1.59375 -0.0625q-0.625 -0.0625 -1.0 -0.1875q-0.375 -0.140625 -0.53125 -0.328125q-0.15625 -0.203125 -0.15625 -0.46875l0 -23.21875q0 -0.265625 0.125 -0.453125q0.140625 -0.203125 0.46875 -0.328125q0.34375 -0.140625 0.875 -0.203125q0.53125 -0.0625 1.34375 -0.0625q0.828125 0 1.375 0.0625q0.546875 0.0625 0.84375 0.203125q0.31253052 0.125 0.43753052 0.328125q0.125 0.1875 0.125 0.453125l0 2.671875q1.9375 -2.078125 3.921875 -3.109375q2.0 -1.046875 4.15625 -1.046875q2.375 0 4.0 0.78125q1.625 0.78125 2.625 2.125q1.0 1.328125 1.4375 3.125q0.453125 1.796875 0.453125 4.328125l0 14.34375zm12.992004 0q0 0.265625 -0.15625 0.46875q-0.15625 0.1875 -0.53125 0.328125q-0.375 0.125 -1.0 0.1875q-0.625 0.0625 -1.59375 0.0625q-0.96875 0 -1.59375 -0.0625q-0.625 -0.0625 -1.0 -0.1875q-0.375 -0.140625 -0.53125 -0.328125q-0.15625 -0.203125 -0.15625 -0.46875l0 -23.171875q0 -0.265625 0.15625 -0.453125q0.15625 -0.203125 0.53125 -0.34375q0.375 -0.140625 1.0 -0.21875q0.625 -0.078125 1.59375 -0.078125q0.96875 0 1.59375 0.078125q0.625 0.078125 1.0 0.21875q0.375 0.140625 0.53125 0.34375q0.15625 0.1875 0.15625 0.453125l0 23.171875zm0.5 -31.078125q0 1.96875 -0.8125 2.734375q-0.8125 0.75 -3.0 0.75q-2.203125 0 -2.984375 -0.71875q-0.765625 -0.734375 -0.765625 -2.640625q0 -1.984375 0.796875 -2.75q0.796875 -0.765625 3.015625 -0.765625q2.1875 0 2.96875 0.75q0.78125 0.734375 0.78125 2.640625zm13.738281 28.21875q0 2.421875 -0.84375 3.265625q-0.84375 0.828125 -3.03125 0.828125q-2.1875 0 -3.03125 -0.8125q-0.828125 -0.828125 -0.828125 -3.125q0 -2.453125 0.84375 -3.28125q0.859375 -0.828125 3.0625 -0.828125q2.171875 0 3.0 0.828125q0.828125 0.8125 0.828125 3.125zm22.899658 -3.703125q0 1.984375 -0.75 3.5q-0.734375 1.5 -2.09375 2.515625q-1.359375 1.015625 -3.203125 1.515625q-1.84375 0.515625 -4.015625 0.515625q-1.296875 0 -2.484375 -0.203125q-1.1875 -0.1875 -2.125 -0.484375q-0.9375 -0.296875 -1.5625 -0.609375q-0.625 -0.3125 -0.90625 -0.578125q-0.28125 -0.28125 -0.4375 -0.859375q-0.15625 -0.59375 -0.15625 -1.734375q0 -0.765625 0.046875 -1.21875q0.046875 -0.453125 0.15625 -0.71875q0.109375 -0.28125 0.265625 -0.375q0.15625 -0.09375 0.390625 -0.09375q0.28125 0 0.84375 0.328125q0.5625 0.328125 1.390625 0.71875q0.828125 0.390625 1.9375 0.734375q1.109375 0.328125 2.515625 0.328125q0.890625 0 1.578125 -0.171875q0.6875 -0.1875 1.1875 -0.515625q0.515625 -0.34375 0.765625 -0.859375q0.265625 -0.53125 0.265625 -1.203125q0 -0.78125 -0.484375 -1.34375q-0.46875 -0.5625 -1.265625 -0.96875q-0.796875 -0.421875 -1.796875 -0.78125q-1.0 -0.375 -2.0625 -0.8125q-1.046875 -0.453125 -2.0625 -1.015625q-1.0 -0.578125 -1.796875 -1.40625q-0.78125 -0.84375 -1.265625 -2.015625q-0.484375 -1.171875 -0.484375 -2.8125q0 -1.65625 0.640625 -3.046875q0.65625 -1.40625 1.875 -2.390625q1.234375 -0.984375 2.984375 -1.53125q1.765625 -0.546875 3.953125 -0.546875q1.09375 0 2.125 0.15625q1.03125 0.15625 1.859375 0.390625q0.828125 0.234375 1.40625 0.515625q0.578125 0.265625 0.8125 0.46875q0.25 0.1875 0.359375 0.390625q0.109375 0.1875 0.15625 0.46875q0.046875 0.265625 0.078125 0.671875q0.046875 0.390625 0.046875 1.0q0 0.703125 -0.046875 1.140625q-0.03125 0.4375 -0.125 0.703125q-0.078125 0.265625 -0.234375 0.359375q-0.15625 0.078125 -0.375 0.078125q-0.234375 0 -0.734375 -0.265625q-0.484375 -0.28125 -1.234375 -0.59375q-0.734375 -0.3125 -1.71875 -0.578125q-0.96875 -0.28125 -2.21875 -0.28125q-0.890625 0 -1.546875 0.1875q-0.640625 0.1875 -1.0625 0.53125q-0.40625 0.328125 -0.625 0.78125q-0.203125 0.453125 -0.203125 0.984375q0 0.796875 0.484375 1.34375q0.5 0.546875 1.3125 0.96875q0.8125 0.421875 1.828125 0.78125q1.03125 0.359375 2.078125 0.796875q1.0625 0.421875 2.09375 1.0q1.03125 0.578125 1.828125 1.40625q0.8125 0.828125 1.3125 2.0q0.5 1.15625 0.5 2.734375zm18.065674 4.28125q0 1.140625 -0.140625 1.75q-0.140625 0.609375 -0.375 0.859375q-0.234375 0.25 -0.703125 0.453125q-0.453125 0.1875 -1.0625 0.328125q-0.609375 0.140625 -1.328125 0.21875q-0.71875 0.078125 -1.4375 0.078125q-1.953125 0 -3.390625 -0.5q-1.4375 -0.484375 -2.375 -1.515625q-0.9375 -1.03125 -1.375 -2.59375q-0.4375 -1.5625 -0.4375 -3.6875l0 -11.90625l-2.796875 0q-0.484375 0 -0.75 -0.609375q-0.265625 -0.609375 -0.265625 -2.046875q0 -0.75 0.0625 -1.265625q0.078125 -0.53125 0.203125 -0.828125q0.125 -0.296875 0.3125 -0.421875q0.203125 -0.140625 0.46875 -0.140625l2.765625 0l0 -5.171875q0 -0.265625 0.140625 -0.46875q0.140625 -0.21875 0.515625 -0.359375q0.375 -0.140625 1.015625 -0.203125q0.640625 -0.0625 1.578125 -0.0625q0.96875 0 1.59375 0.0625q0.640625 0.0625 1.0 0.203125q0.375 0.140625 0.53125 0.359375q0.15625 0.203125 0.15625 0.46875l0 5.171875l5.046875 0q0.265625 0 0.453125 0.140625q0.203125 0.125 0.328125 0.421875q0.140625 0.296875 0.203125 0.828125q0.0625 0.515625 0.0625 1.265625q0 1.4375 -0.265625 2.046875q-0.25 0.609375 -0.75 0.609375l-5.078125 0l0 10.90625q0 1.90625 0.59375 2.859375q0.609375 0.953125 2.140625 0.953125q0.515625 0 0.9375 -0.09375q0.421875 -0.09375 0.734375 -0.203125q0.328125 -0.125 0.546875 -0.21875q0.234375 -0.09375 0.40625 -0.09375q0.15625 0 0.296875 0.09375q0.15625 0.09375 0.234375 0.375q0.078125 0.265625 0.140625 0.734375q0.0625 0.46875 0.0625 1.203125z" fill-rule="nonzero"/><path fill="#000000" fill-opacity="0.0" d="m286.11023 190.93701l93.38583 0l0 96.944885l-93.38583 0z" fill-rule="evenodd"/><path fill="#000000" d="m324.61023 258.252q0 0.875 -0.09375 1.484375q-0.09375 0.609375 -0.265625 0.96875q-0.171875 0.359375 -0.390625 0.515625q-0.21875 0.15625 -0.5 0.15625l-22.3125 0q-0.25 0 -0.46875 -0.15625q-0.21875 -0.15625 -0.390625 -0.515625q-0.171875 -0.359375 -0.265625 -0.96875q-0.09375 -0.609375 -0.09375 -1.484375q0 -0.90625 0.078125 -1.515625q0.078125 -0.609375 0.25 -0.984375q0.171875 -0.375 0.390625 -0.546875q0.21875 -0.171875 0.5 -0.171875l7.53125 0l0 -26.3125l-6.5 3.59375q-0.71875 0.34375 -1.171875 0.421875q-0.453125 0.078125 -0.71875 -0.1875q-0.265625 -0.265625 -0.359375 -0.921875q-0.09375 -0.65625 -0.09375 -1.84375q0 -0.75 0.03125 -1.234375q0.03125 -0.484375 0.15625 -0.828125q0.125 -0.34375 0.34375 -0.5625q0.21875 -0.21875 0.59375 -0.46875l8.6875 -5.625q0.15625 -0.125 0.390625 -0.203125q0.234375 -0.078125 0.609375 -0.125q0.375 -0.046875 0.984375 -0.0625q0.609375 -0.015625 1.578125 -0.015625q1.1875 0 1.921875 0.046875q0.734375 0.046875 1.109375 0.15625q0.375 0.109375 0.5 0.296875q0.125 0.1875 0.125 0.46875l0 33.40625l6.59375 0q0.28125 0 0.515625 0.171875q0.234375 0.171875 0.40625 0.546875q0.171875 0.375 0.25 0.984375q0.078125 0.609375 0.078125 1.515625zm34.0625 -8.5q0 1.59375 -0.328125 2.421875q-0.328125 0.828125 -0.890625 0.828125l-3.59375 0l0 7.3125q0 0.3125 -0.1875 0.546875q-0.1875 0.234375 -0.65625 0.390625q-0.46875 0.15625 -1.21875 0.234375q-0.75 0.078125 -1.9375 0.078125q-1.125 0 -1.890625 -0.078125q-0.765625 -0.078125 -1.21875 -0.234375q-0.453125 -0.15625 -0.625 -0.390625q-0.171875 -0.234375 -0.171875 -0.546875l0 -7.3125l-15.46875 0q-0.4375 0 -0.78125 -0.109375q-0.34375 -0.109375 -0.578125 -0.5q-0.234375 -0.390625 -0.34375 -1.125q-0.109375 -0.734375 -0.109375 -1.953125q0 -1.0 0.046875 -1.734375q0.046875 -0.734375 0.15625 -1.328125q0.109375 -0.59375 0.3125 -1.125q0.203125 -0.53125 0.515625 -1.125l12.5625 -22.15625q0.15625 -0.28125 0.53125 -0.484375q0.375 -0.203125 1.046875 -0.34375q0.671875 -0.140625 1.703125 -0.203125q1.03125 -0.0625 2.5 -0.0625q1.59375 0 2.71875 0.078125q1.125 0.078125 1.796875 0.25q0.671875 0.171875 0.984375 0.421875q0.3125 0.25 0.3125 0.59375l0 24.34375l3.59375 0q0.5 0 0.859375 0.765625q0.359375 0.765625 0.359375 2.546875zm-12.71875 -21.90625l-0.0625 0l-10.65625 18.59375l10.71875 0l0 -18.59375z" fill-rule="nonzero"/><path fill="#000000" fill-opacity="0.0" d="m281.38058 507.1916l367.68503 0l0 58.173218l-367.68503 0z" fill-rule="evenodd"/><path fill="#666666" d="m435.34027 545.23975q0 0.453125 -0.046875 0.78125q-0.03125 0.3125 -0.109375 0.515625q-0.078125 0.203125 -0.203125 0.296875q-0.125 0.078125 -0.28125 0.078125l-11.625 0q-0.34375 0 -0.59375 -0.0625q-0.25 -0.0625 -0.40625 -0.234375q-0.15625 -0.1875 -0.234375 -0.53125q-0.0625 -0.34375 -0.0625 -0.890625q0 -0.515625 0.046875 -0.875q0.046875 -0.375 0.171875 -0.65625q0.125 -0.296875 0.3125 -0.5625q0.203125 -0.28125 0.515625 -0.609375l3.5 -3.75q1.046875 -1.09375 1.6875 -1.984375q0.640625 -0.90625 1.0 -1.640625q0.359375 -0.75 0.484375 -1.375q0.140625 -0.625 0.140625 -1.1875q0 -0.515625 -0.171875 -0.96875q-0.15625 -0.46875 -0.484375 -0.8125q-0.3125 -0.34375 -0.796875 -0.53125q-0.484375 -0.203125 -1.140625 -0.203125q-0.921875 0 -1.640625 0.234375q-0.703125 0.234375 -1.25 0.53125q-0.53125 0.28125 -0.890625 0.53125q-0.359375 0.234375 -0.5625 0.234375q-0.140625 0 -0.25 -0.09375q-0.09375 -0.09375 -0.15625 -0.3125q-0.0625 -0.21875 -0.109375 -0.578125q-0.03125 -0.375 -0.03125 -0.90625q0 -0.359375 0.015625 -0.59375q0.03125 -0.25 0.078125 -0.421875q0.046875 -0.1875 0.125 -0.3125q0.078125 -0.140625 0.265625 -0.328125q0.203125 -0.1875 0.71875 -0.46875q0.53125 -0.296875 1.296875 -0.5625q0.765625 -0.28125 1.6875 -0.46875q0.921875 -0.1875 1.921875 -0.1875q1.578125 0 2.75 0.40625q1.1875 0.390625 1.96875 1.109375q0.78125 0.703125 1.15625 1.6875q0.390625 0.96875 0.390625 2.09375q0 0.984375 -0.1875 1.9375q-0.1875 0.953125 -0.78125 2.0625q-0.59375 1.09375 -1.671875 2.4375q-1.078125 1.328125 -2.859375 3.09375l-2.359375 2.421875l7.96875 0q0.15625 0 0.28125 0.09375q0.140625 0.09375 0.234375 0.296875q0.09375 0.1875 0.140625 0.515625q0.046875 0.3125 0.046875 0.75zm16.53125 -3.75q0 1.375 -0.484375 2.453125q-0.46875 1.078125 -1.40625 1.828125q-0.921875 0.734375 -2.296875 1.125q-1.375 0.375 -3.171875 0.375q-1.71875 0 -3.015625 -0.34375q-1.296875 -0.34375 -2.171875 -1.0q-0.875 -0.671875 -1.3125 -1.640625q-0.4375 -0.984375 -0.4375 -2.25q0 -0.859375 0.25 -1.609375q0.265625 -0.765625 0.765625 -1.40625q0.515625 -0.65625 1.265625 -1.21875q0.765625 -0.578125 1.75 -1.09375q-0.796875 -0.4375 -1.4375 -0.9375q-0.640625 -0.515625 -1.09375 -1.109375q-0.453125 -0.609375 -0.6875 -1.328125q-0.234375 -0.71875 -0.234375 -1.5625q0 -1.21875 0.421875 -2.203125q0.4375 -1.0 1.28125 -1.71875q0.859375 -0.734375 2.140625 -1.125q1.28125 -0.390625 2.96875 -0.390625q1.671875 0 2.859375 0.359375q1.203125 0.359375 1.96875 1.015625q0.765625 0.65625 1.125 1.578125q0.375 0.90625 0.375 2.015625q0 0.734375 -0.25 1.4375q-0.234375 0.6875 -0.671875 1.3125q-0.4375 0.625 -1.078125 1.1875q-0.640625 0.546875 -1.453125 1.0q0.953125 0.5 1.703125 1.0625q0.75 0.5625 1.265625 1.21875q0.515625 0.640625 0.78125 1.375q0.28125 0.734375 0.28125 1.59375zm-4.53125 -9.8125q0 -0.546875 -0.15625 -0.984375q-0.15625 -0.4375 -0.5 -0.734375q-0.328125 -0.3125 -0.828125 -0.46875q-0.484375 -0.15625 -1.15625 -0.15625q-1.3125 0 -1.953125 0.609375q-0.640625 0.59375 -0.640625 1.65625q0 0.5 0.15625 0.921875q0.171875 0.421875 0.515625 0.796875q0.34375 0.375 0.890625 0.734375q0.546875 0.359375 1.296875 0.765625q1.140625 -0.671875 1.75 -1.4375q0.625 -0.765625 0.625 -1.703125zm0.46875 10.09375q0 -0.578125 -0.203125 -1.046875q-0.1875 -0.484375 -0.609375 -0.90625q-0.40625 -0.421875 -1.03125 -0.8125q-0.625 -0.390625 -1.453125 -0.796875q-0.71875 0.390625 -1.265625 0.78125q-0.546875 0.390625 -0.90625 0.828125q-0.359375 0.421875 -0.546875 0.90625q-0.171875 0.46875 -0.171875 1.015625q0 1.21875 0.78125 1.859375q0.796875 0.640625 2.359375 0.640625q1.53125 0 2.28125 -0.65625q0.765625 -0.65625 0.765625 -1.8125zm11.625 2.890625q0 1.453125 -0.515625 1.953125q-0.5 0.5 -1.8125 0.5q-1.3125 0 -1.8125 -0.484375q-0.5 -0.5 -0.5 -1.875q0 -1.46875 0.5 -1.96875q0.515625 -0.5 1.84375 -0.5q1.296875 0 1.796875 0.5q0.5 0.484375 0.5 1.875zm17.296875 -7.9375q0 2.421875 -0.390625 4.375q-0.390625 1.953125 -1.28125 3.328125q-0.875 1.375 -2.296875 2.109375q-1.40625 0.734375 -3.453125 0.734375q-2.078125 0 -3.4375 -0.703125q-1.359375 -0.71875 -2.15625 -2.046875q-0.796875 -1.34375 -1.125 -3.265625q-0.3125 -1.9375 -0.3125 -4.375q0 -2.40625 0.390625 -4.359375q0.40625 -1.96875 1.28125 -3.34375q0.890625 -1.375 2.296875 -2.109375q1.421875 -0.734375 3.453125 -0.734375q2.078125 0 3.4375 0.71875q1.375 0.703125 2.171875 2.046875q0.796875 1.328125 1.109375 3.265625q0.3125 1.921875 0.3125 4.359375zm-4.140625 0.203125q0 -1.4375 -0.078125 -2.53125q-0.078125 -1.109375 -0.25 -1.921875q-0.15625 -0.8125 -0.40625 -1.375q-0.234375 -0.5625 -0.578125 -0.890625q-0.34375 -0.34375 -0.78125 -0.484375q-0.4375 -0.140625 -0.96875 -0.140625q-0.921875 0 -1.53125 0.453125q-0.59375 0.4375 -0.953125 1.328125q-0.34375 0.890625 -0.484375 2.21875q-0.140625 1.328125 -0.140625 3.09375q0 2.15625 0.171875 3.578125q0.171875 1.40625 0.53125 2.25q0.375 0.828125 0.953125 1.171875q0.578125 0.328125 1.390625 0.328125q0.609375 0 1.078125 -0.1875q0.46875 -0.203125 0.8125 -0.59375q0.359375 -0.390625 0.59375 -0.984375q0.234375 -0.59375 0.375 -1.375q0.15625 -0.78125 0.203125 -1.765625q0.0625 -0.984375 0.0625 -2.171875zm20.265625 4.5625q0 1.375 -0.484375 2.453125q-0.46875 1.078125 -1.40625 1.828125q-0.921875 0.734375 -2.296875 1.125q-1.375 0.375 -3.171875 0.375q-1.71875 0 -3.015625 -0.34375q-1.296875 -0.34375 -2.171875 -1.0q-0.875 -0.671875 -1.3125 -1.640625q-0.4375 -0.984375 -0.4375 -2.25q0 -0.859375 0.25 -1.609375q0.265625 -0.765625 0.765625 -1.40625q0.515625 -0.65625 1.265625 -1.21875q0.765625 -0.578125 1.75 -1.09375q-0.796875 -0.4375 -1.4375 -0.9375q-0.640625 -0.515625 -1.09375 -1.109375q-0.453125 -0.609375 -0.6875 -1.328125q-0.234375 -0.71875 -0.234375 -1.5625q0 -1.21875 0.421875 -2.203125q0.4375 -1.0 1.28125 -1.71875q0.859375 -0.734375 2.140625 -1.125q1.28125 -0.390625 2.96875 -0.390625q1.671875 0 2.859375 0.359375q1.203125 0.359375 1.96875 1.015625q0.765625 0.65625 1.125 1.578125q0.375 0.90625 0.375 2.015625q0 0.734375 -0.25 1.4375q-0.234375 0.6875 -0.671875 1.3125q-0.4375 0.625 -1.078125 1.1875q-0.640625 0.546875 -1.453125 1.0q0.953125 0.5 1.703125 1.0625q0.75 0.5625 1.265625 1.21875q0.515625 0.640625 0.78125 1.375q0.28125 0.734375 0.28125 1.59375zm-4.53125 -9.8125q0 -0.546875 -0.15625 -0.984375q-0.15625 -0.4375 -0.5 -0.734375q-0.328125 -0.3125 -0.828125 -0.46875q-0.484375 -0.15625 -1.15625 -0.15625q-1.3125 0 -1.953125 0.609375q-0.640625 0.59375 -0.640625 1.65625q0 0.5 0.15625 0.921875q0.171875 0.421875 0.515625 0.796875q0.34375 0.375 0.890625 0.734375q0.546875 0.359375 1.296875 0.765625q1.140625 -0.671875 1.75 -1.4375q0.625 -0.765625 0.625 -1.703125zm0.46875 10.09375q0 -0.578125 -0.203125 -1.046875q-0.1875 -0.484375 -0.609375 -0.90625q-0.40625 -0.421875 -1.03125 -0.8125q-0.625 -0.390625 -1.453125 -0.796875q-0.71875 0.390625 -1.265625 0.78125q-0.546875 0.390625 -0.90625 0.828125q-0.359375 0.421875 -0.546875 0.90625q-0.171875 0.46875 -0.171875 1.015625q0 1.21875 0.78125 1.859375q0.796875 0.640625 2.359375 0.640625q1.53125 0 2.28125 -0.65625q0.765625 -0.65625 0.765625 -1.8125zm20.28125 -1.609375q0 1.53125 -0.46875 2.84375q-0.46875 1.296875 -1.375 2.25q-0.90625 0.9375 -2.234375 1.484375q-1.328125 0.53125 -3.0625 0.53125q-1.40625 0 -2.453125 -0.328125q-1.046875 -0.3125 -1.8125 -0.90625q-0.765625 -0.609375 -1.25 -1.46875q-0.484375 -0.859375 -0.78125 -1.9375q-0.28125 -1.078125 -0.390625 -2.34375q-0.109375 -1.265625 -0.109375 -2.6875q0 -1.1875 0.109375 -2.484375q0.125 -1.296875 0.453125 -2.546875q0.34375 -1.25 0.953125 -2.375q0.609375 -1.140625 1.5625 -1.984375q0.96875 -0.859375 2.328125 -1.359375q1.375 -0.5 3.25 -0.5q0.59375 0 1.1875 0.078125q0.609375 0.0625 1.125 0.171875q0.515625 0.109375 0.875 0.25q0.359375 0.140625 0.46875 0.25q0.125 0.09375 0.1875 0.21875q0.0625 0.125 0.09375 0.28125q0.046875 0.140625 0.0625 0.359375q0.015625 0.21875 0.015625 0.53125q0 0.484375 -0.03125 0.8125q-0.015625 0.3125 -0.078125 0.5q-0.0625 0.171875 -0.171875 0.25q-0.109375 0.078125 -0.265625 0.078125q-0.1875 0 -0.484375 -0.09375q-0.296875 -0.109375 -0.71875 -0.234375q-0.421875 -0.125 -1.0 -0.21875q-0.5625 -0.09375 -1.3125 -0.09375q-1.265625 0 -2.140625 0.46875q-0.875 0.46875 -1.421875 1.28125q-0.546875 0.796875 -0.796875 1.859375q-0.25 1.0625 -0.265625 2.25q0.34375 -0.21875 0.78125 -0.4375q0.453125 -0.21875 0.96875 -0.375q0.53125 -0.15625 1.140625 -0.25q0.609375 -0.109375 1.296875 -0.109375q1.53125 0 2.625 0.421875q1.09375 0.421875 1.78125 1.203125q0.703125 0.78125 1.03125 1.890625q0.328125 1.109375 0.328125 2.46875zm-4.03125 0.390625q0 -0.796875 -0.140625 -1.390625q-0.140625 -0.609375 -0.453125 -1.015625q-0.3125 -0.421875 -0.828125 -0.625q-0.515625 -0.21875 -1.25 -0.21875q-0.4375 0 -0.859375 0.078125q-0.421875 0.078125 -0.828125 0.21875q-0.40625 0.140625 -0.78125 0.34375q-0.375 0.1875 -0.703125 0.40625q0 1.671875 0.1875 2.796875q0.1875 1.109375 0.546875 1.765625q0.375 0.65625 0.921875 0.9375q0.5625 0.265625 1.296875 0.265625q0.71875 0 1.25 -0.265625q0.546875 -0.265625 0.90625 -0.75q0.359375 -0.484375 0.546875 -1.125q0.1875 -0.65625 0.1875 -1.421875z" fill-rule="nonzero"/></g></svg>